<svg id="eyu" xmlns="http://www.w3.org/2000/svg" xmlns:xlink="http://www.w3.org/1999/xlink" viewBox="0 0 300 300" shape-rendering="geometricPrecision" text-rendering="geometricPrecision"><g id="eyu-s-g1"><ellipse id="eyu-s-ellipse1" rx="150" ry="150" transform="translate(150 150)" fill="#fff" stroke-width="0"/><path id="eyu-s-path1" d="M159.924987,295.337998C68.900246,295.337998,23.387875,230.56676,23.387875,150c0-90.448983,53.737498-145.831506,136.537112-145.283164c58.519197,0,100.369063,16.276267,118.781803,64.769044-6.71956,12.45336-21.75026,11.91984-30.00525,0-13.733233-29.273794-41.070815-38.996978-88.776553-38.996978-57.117539,0-108.626507,38.996978-108.626507,109.009258l56.32568-.00001c14.465242.52641,27.37321,10.527591,27.37321,27.37323c19.333307,75.648855,45.729874,95.065886,60.01053,0l4.73767-26.84682l24.21478-.52641-5.516166,27.37323c-21.706527,114.635109-74.151463,116.783941-110.820024-7.36972c0,0,0,0,0,0-7.572608.000001-40.36894,0-56.32568,0-.00001,71.0651,52.1473,112.25764,108.626507,112.25764c50.447447,0,69.091068-7.128444,88.776553-41.19254c5.74092-10.7863,19.911911-14.94631,30.213621,0-15.353571,49.966009-60.467298,64.771238-118.990174,64.771238Z" transform="matrix(.835714 0 0 0.750951 16.660297 37.207322)" fill="#071f50" fill-rule="evenodd" stroke-width="0.6" stroke-linejoin="round"/><path id="eyu-s-path2" d="M120.992712,69.485875c4.468752-9.25953,17.716691-9.984557,21.933673,0l23.578698,48.737712l16.921828-48.737712c3.858019-7.422878,18.016185-9.276399,23.655466,0l-23.655466,64.221788-7.896119,70.012283c-1.149449,13.979733-13.552643,13.737793-15.792247-.526407l-9.897565-69.485876-28.848268-64.221788Z" transform="matrix(.781088 0 0 0.775026 25.888835 32.568292)" fill="#031539" stroke="#3f5787" stroke-width="0.6" stroke-linejoin="round"/></g></svg>
